STARTFONT 2.1
FONT -Adobe-Interim DM-Medium-I-Normal--14-140-75-75-P-140-DEC-DECMATH_SYMBOL
SIZE 14 75 75
FONTBOUNDINGBOX 15 18 -1 -4

STARTPROPERTIES 24
FAMILY_NAME "Interim DM"
FOUNDRY "Adobe"
WEIGHT_NAME "Medium"
SETWIDTH_NAME "Normal"
SLANT "I"
ADD_STYLE_NAME ""
PIXEL_SIZE 14
POINT_SIZE 140
RESOLUTION_X 75
RESOLUTION_Y 75
SPACING "P"
AVERAGE_WIDTH 140
CHARSET_REGISTRY "DEC"
CHARSET_ENCODING "DECMATH_SYMBOL"
CHARSET_COLLECTIONS "DECMATH_SYMBOL"
CAP_HEIGHT 10
X_HEIGHT 7
FULL_NAME "Interim DEC Math Symbol Screen"
COPYRIGHT "Copyright (c) 1984, 1987 Adobe Systems Incorporated"
WEIGHT 10
QUAD_WIDTH 9
DEFAULT_CHAR 0
FONT_DESCENT 3
FONT_ASCENT 11
ENDPROPERTIES

CHARS 128

STARTCHAR arrowleft
ENCODING 32
SWIDTH 987 0
DWIDTH 14 0
BBX 14 7 0 0
BITMAP
1000
2000
4000
FFFC
4000
2000
1000
ENDCHAR

STARTCHAR arrowright
ENCODING 33
SWIDTH 987 0
DWIDTH 14 0
BBX 14 7 0 0
BITMAP
0020
0010
0008
FFFC
0008
0010
0020
ENDCHAR

STARTCHAR arrowup
ENCODING 34
SWIDTH 603 0
DWIDTH 9 0
BBX 7 17 1 -3
BITMAP
10
38
54
92
10
10
10
10
10
10
10
10
10
10
10
10
10
ENDCHAR

STARTCHAR arrowdown
ENCODING 35
SWIDTH 603 0
DWIDTH 9 0
BBX 7 17 1 -3
BITMAP
10
10
10
10
10
10
10
10
10
10
10
10
10
92
54
38
10
ENDCHAR

STARTCHAR arrowboth
ENCODING 36
SWIDTH 1042 0
DWIDTH 15 0
BBX 13 7 1 0
BITMAP
1040
2020
4010
FFF8
4010
2020
1040
ENDCHAR

STARTCHAR arrowne-fallback
ENCODING 37
SWIDTH 250 0
DWIDTH 4 0
BBX 0 0 0 0
BITMAP
ENDCHAR

STARTCHAR arrowse-fallback
ENCODING 38
SWIDTH 250 0
DWIDTH 4 0
BBX 0 0 0 0
BITMAP
ENDCHAR

STARTCHAR similarequal-fallback
ENCODING 39
SWIDTH 250 0
DWIDTH 4 0
BBX 0 0 0 0
BITMAP
ENDCHAR

STARTCHAR arrowdblleft
ENCODING 40
SWIDTH 987 0
DWIDTH 14 0
BBX 13 7 0 0
BITMAP
1000
2000
7FF8
C000
7FF8
2000
1000
ENDCHAR

STARTCHAR arrowdblright
ENCODING 41
SWIDTH 987 0
DWIDTH 14 0
BBX 13 7 1 0
BITMAP
0040
0020
FFF0
0018
FFF0
0020
0040
ENDCHAR

STARTCHAR arrowdblup
ENCODING 42
SWIDTH 603 0
DWIDTH 9 0
BBX 7 13 1 0
BITMAP
10
38
6C
AA
28
28
28
28
28
28
28
28
28
ENDCHAR

STARTCHAR arrowdbldown
ENCODING 43
SWIDTH 603 0
DWIDTH 9 0
BBX 7 13 1 0
BITMAP
28
28
28
28
28
28
28
28
28
AA
6C
38
10
ENDCHAR

STARTCHAR arrowdblboth
ENCODING 44
SWIDTH 1042 0
DWIDTH 15 0
BBX 13 7 1 0
BITMAP
1040
2020
7FF0
C018
7FF0
2020
1040
ENDCHAR

STARTCHAR arrownw-fallback
ENCODING 45
SWIDTH 250 0
DWIDTH 4 0
BBX 0 0 0 0
BITMAP
ENDCHAR

STARTCHAR arrowsw-fallback
ENCODING 46
SWIDTH 250 0
DWIDTH 4 0
BBX 0 0 0 0
BITMAP
ENDCHAR

STARTCHAR proportional
ENCODING 47
SWIDTH 713 0
DWIDTH 10 0
BBX 8 4 0 2
BITMAP
77
88
88
77
ENDCHAR

STARTCHAR minute
ENCODING 48
SWIDTH 247 0
DWIDTH 4 0
BBX 4 3 0 7
BITMAP
30
60
80
ENDCHAR

STARTCHAR infinity
ENCODING 49
SWIDTH 713 0
DWIDTH 10 0
BBX 9 4 0 2
BITMAP
7700
9880
8C80
7700
ENDCHAR

STARTCHAR element
ENCODING 50
SWIDTH 713 0
DWIDTH 10 0
BBX 7 7 1 0
BITMAP
3E
40
80
FE
80
40
3E
ENDCHAR

STARTCHAR suchthat
ENCODING 51
SWIDTH 439 0
DWIDTH 6 0
BBX 5 7 0 0
BITMAP
E0
10
08
78
08
10
E0
ENDCHAR

STARTCHAR triangleup-fallback
ENCODING 52
SWIDTH 250 0
DWIDTH 4 0
BBX 0 0 0 0
BITMAP
ENDCHAR

STARTCHAR triangledn-fallback
ENCODING 53
SWIDTH 250 0
DWIDTH 4 0
BBX 0 0 0 0
BITMAP
ENDCHAR

STARTCHAR fraction
ENCODING 54
SWIDTH 167 0
DWIDTH 4 0
BBX 5 10 -1 0
BITMAP
08
08
10
10
20
20
40
40
80
80
ENDCHAR

STARTCHAR mapstoconstr-fallback
ENCODING 55
SWIDTH 250 0
DWIDTH 4 0
BBX 0 0 0 0
BITMAP
ENDCHAR

STARTCHAR universal
ENCODING 56
SWIDTH 713 0
DWIDTH 9 0
BBX 9 10 0 0
BITMAP
8080
4100
4100
3E00
2200
2200
1400
1400
0800
0800
ENDCHAR

STARTCHAR existential
ENCODING 57
SWIDTH 549 0
DWIDTH 8 0
BBX 6 10 1 0
BITMAP
FC
04
04
04
FC
04
04
04
04
FC
ENDCHAR

STARTCHAR logicalnot
ENCODING 58
SWIDTH 713 0
DWIDTH 10 0
BBX 9 5 0 0
BITMAP
FF80
0080
0080
0080
0080
ENDCHAR

STARTCHAR emptyset
ENCODING 59
SWIDTH 823 0
DWIDTH 12 0
BBX 11 11 0 0
BITMAP
1F20
60C0
40C0
8120
8220
8420
8820
9020
6040
60C0
9F00
ENDCHAR

STARTCHAR Rfraktur
ENCODING 60
SWIDTH 795 0
DWIDTH 12 0
BBX 10 11 1 0
BITMAP
7300
9D80
8980
8B00
CE00
6A00
2900
0900
0900
6900
B0C0
ENDCHAR

STARTCHAR Ifraktur
ENCODING 61
SWIDTH 686 0
DWIDTH 10 0
BBX 8 12 1 -1
BITMAP
3F
61
42
46
24
06
03
01
61
F1
1A
0C
ENDCHAR

STARTCHAR latticetp-fallback
ENCODING 62
SWIDTH 250 0
DWIDTH 4 0
BBX 0 0 0 0
BITMAP
ENDCHAR

STARTCHAR perpendicular
ENCODING 63
SWIDTH 658 0
DWIDTH 10 0
BBX 9 10 0 0
BITMAP
0800
0800
0800
0800
0800
0800
0800
0800
0800
FF80
ENDCHAR

STARTCHAR aleph
ENCODING 64
SWIDTH 823 0
DWIDTH 12 0
BBX 8 10 2 0
BITMAP
88
CE
66
24
74
9C
8C
46
63
E1
ENDCHAR

STARTCHAR A
ENCODING 65
SWIDTH 704 0
DWIDTH 11 0
BBX 10 11 0 0
BITMAP
0400
0600
0A00
0A00
1200
1100
2100
3F00
4080
4080
E1C0
ENDCHAR

STARTCHAR B
ENCODING 66
SWIDTH 722 0
DWIDTH 9 0
BBX 8 11 0 0
BITMAP
7E
21
21
21
22
3C
42
41
41
42
FC
ENDCHAR

STARTCHAR C
ENCODING 67
SWIDTH 722 0
DWIDTH 10 0
BBX 9 11 0 0
BITMAP
1E80
2180
4080
4000
8000
8000
8000
8000
8100
4200
3C00
ENDCHAR

STARTCHAR D
ENCODING 68
SWIDTH 778 0
DWIDTH 11 0
BBX 10 11 0 0
BITMAP
7F00
2080
2040
2040
2040
2040
4040
4080
4080
4100
FE00
ENDCHAR

STARTCHAR E
ENCODING 69
SWIDTH 722 0
DWIDTH 9 0
BBX 8 11 0 0
BITMAP
7F
21
21
20
24
3C
44
40
41
41
FF
ENDCHAR

STARTCHAR F
ENCODING 70
SWIDTH 667 0
DWIDTH 8 0
BBX 8 11 0 0
BITMAP
7F
21
21
20
24
3C
44
40
40
40
E0
ENDCHAR

STARTCHAR G
ENCODING 71
SWIDTH 778 0
DWIDTH 10 0
BBX 9 11 0 0
BITMAP
1E80
2180
4080
4000
8000
8000
8380
8100
8100
4300
3D00
ENDCHAR

STARTCHAR H
ENCODING 72
SWIDTH 833 0
DWIDTH 11 0
BBX 10 11 0 0
BITMAP
71C0
2080
2080
2080
2080
3F00
4100
4100
4100
4100
E380
ENDCHAR

STARTCHAR I
ENCODING 73
SWIDTH 407 0
DWIDTH 7 0
BBX 4 11 1 0
BITMAP
70
20
20
20
20
20
40
40
40
40
E0
ENDCHAR

STARTCHAR J
ENCODING 74
SWIDTH 611 0
DWIDTH 8 0
BBX 7 11 0 0
BITMAP
0E
04
04
04
04
04
08
C8
88
88
70
ENDCHAR

STARTCHAR K
ENCODING 75
SWIDTH 741 0
DWIDTH 10 0
BBX 9 11 0 0
BITMAP
7380
2100
2200
2400
2800
3800
4400
4400
4200
4200
E700
ENDCHAR

STARTCHAR L
ENCODING 76
SWIDTH 667 0
DWIDTH 9 0
BBX 8 11 0 0
BITMAP
70
20
20
20
20
20
40
40
41
41
FF
ENDCHAR

STARTCHAR M
ENCODING 77
SWIDTH 944 0
DWIDTH 14 0
BBX 13 11 0 0
BITMAP
7038
3030
2850
2850
2890
2490
4520
4520
4220
4220
E270
ENDCHAR

STARTCHAR N
ENCODING 78
SWIDTH 815 0
DWIDTH 12 0
BBX 11 11 0 0
BITMAP
70E0
3040
2840
2840
2440
2480
4280
4280
4180
4180
E080
ENDCHAR

STARTCHAR O
ENCODING 79
SWIDTH 778 0
DWIDTH 10 0
BBX 9 11 0 0
BITMAP
1E00
2100
4080
4080
8080
8080
8080
8100
8100
4200
3C00
ENDCHAR

STARTCHAR P
ENCODING 80
SWIDTH 667 0
DWIDTH 10 0
BBX 9 11 0 0
BITMAP
7F00
2080
2080
2080
2100
3E00
4000
4000
4000
4000
E000
ENDCHAR

STARTCHAR Q
ENCODING 81
SWIDTH 778 0
DWIDTH 10 0
BBX 9 13 0 -2
BITMAP
1E00
2100
4080
4080
8080
8080
8080
B900
C500
4600
3C00
0480
0300
ENDCHAR

STARTCHAR R
ENCODING 82
SWIDTH 741 0
DWIDTH 11 0
BBX 10 11 0 0
BITMAP
7E00
2100
2100
2100
2200
3C00
4400
4200
4200
4240
E180
ENDCHAR

STARTCHAR S
ENCODING 83
SWIDTH 667 0
DWIDTH 10 0
BBX 9 11 0 0
BITMAP
1E80
2180
4080
6000
3800
0E00
0300
0100
8100
C200
BC00
ENDCHAR

STARTCHAR T
ENCODING 84
SWIDTH 685 0
DWIDTH 10 0
BBX 9 11 0 0
BITMAP
FF80
8880
8880
0800
0800
0800
1000
1000
1000
1000
3800
ENDCHAR

STARTCHAR U
ENCODING 85
SWIDTH 815 0
DWIDTH 12 0
BBX 10 11 1 0
BITMAP
E1C0
4080
4080
4080
4080
8100
8100
8100
8100
4200
3C00
ENDCHAR

STARTCHAR V
ENCODING 86
SWIDTH 704 0
DWIDTH 10 0
BBX 10 11 0 0
BITMAP
E1C0
4080
4080
4100
2100
2200
2200
1400
1400
1800
1800
ENDCHAR

STARTCHAR W
ENCODING 87
SWIDTH 926 0
DWIDTH 13 0
BBX 13 11 0 0
BITMAP
E738
4210
4210
4210
2520
2520
2940
2940
1080
1080
1080
ENDCHAR

STARTCHAR X
ENCODING 88
SWIDTH 704 0
DWIDTH 10 0
BBX 11 11 -1 0
BITMAP
38E0
1040
0880
0900
0600
0400
0E00
1200
2100
4100
E380
ENDCHAR

STARTCHAR Y
ENCODING 89
SWIDTH 685 0
DWIDTH 9 0
BBX 9 11 0 0
BITMAP
E380
4100
4200
2400
2800
1000
1000
2000
2000
2000
7000
ENDCHAR

STARTCHAR Z
ENCODING 90
SWIDTH 667 0
DWIDTH 10 0
BBX 9 11 0 0
BITMAP
7F80
4100
4200
0400
0800
0800
1000
2000
4100
8100
FF00
ENDCHAR

STARTCHAR union
ENCODING 91
SWIDTH 768 0
DWIDTH 10 0
BBX 10 7 0 0
BITMAP
8040
8040
8040
8040
4080
6180
1E00
ENDCHAR

STARTCHAR intersection
ENCODING 92
SWIDTH 768 0
DWIDTH 10 0
BBX 10 7 0 0
BITMAP
1E00
6180
4080
8040
8040
8040
8040
ENDCHAR

STARTCHAR multiunion-fallback
ENCODING 93
SWIDTH 250 0
DWIDTH 4 0
BBX 0 0 0 0
BITMAP
ENDCHAR

STARTCHAR logicaland
ENCODING 94
SWIDTH 603 0
DWIDTH 9 0
BBX 8 7 0 0
BITMAP
18
18
24
24
42
42
81
ENDCHAR

STARTCHAR logicalor
ENCODING 95
SWIDTH 603 0
DWIDTH 9 0
BBX 8 7 0 0
BITMAP
81
42
42
24
24
18
18
ENDCHAR

STARTCHAR turnstileleft-fallback
ENCODING 96
SWIDTH 250 0
DWIDTH 4 0
BBX 0 0 0 0
BITMAP
ENDCHAR

STARTCHAR turnstileright-fallback
ENCODING 97
SWIDTH 250 0
DWIDTH 4 0
BBX 0 0 0 0
BITMAP
ENDCHAR

STARTCHAR bracketleftbt
ENCODING 98
SWIDTH 384 0
DWIDTH 6 0
BBX 4 17 1 -3
BITMAP
80
80
80
80
80
80
80
80
80
80
80
80
80
80
80
80
F0
ENDCHAR

STARTCHAR bracketrightbt
ENCODING 99
SWIDTH 384 0
DWIDTH 6 0
BBX 4 17 1 -3
BITMAP
10
10
10
10
10
10
10
10
10
10
10
10
10
10
10
10
F0
ENDCHAR

STARTCHAR bracketlefttp
ENCODING 100
SWIDTH 384 0
DWIDTH 6 0
BBX 4 17 1 -3
BITMAP
F0
80
80
80
80
80
80
80
80
80
80
80
80
80
80
80
80
ENDCHAR

STARTCHAR bracketrighttp
ENCODING 101
SWIDTH 384 0
DWIDTH 6 0
BBX 4 17 1 -3
BITMAP
F0
10
10
10
10
10
10
10
10
10
10
10
10
10
10
10
10
ENDCHAR

STARTCHAR braceleft
ENCODING 102
SWIDTH 480 0
DWIDTH 7 0
BBX 5 13 1 -3
BITMAP
18
20
20
20
20
40
80
40
20
20
20
20
18
ENDCHAR

STARTCHAR braceright
ENCODING 103
SWIDTH 480 0
DWIDTH 7 0
BBX 5 13 1 -3
BITMAP
C0
20
20
20
20
10
08
10
20
20
20
20
C0
ENDCHAR

STARTCHAR angleleft
ENCODING 104
SWIDTH 329 0
DWIDTH 5 0
BBX 4 15 0 -4
BITMAP
10
20
20
40
40
40
80
80
80
40
40
40
20
20
10
ENDCHAR

STARTCHAR angleright
ENCODING 105
SWIDTH 329 0
DWIDTH 5 0
BBX 4 15 1 -4
BITMAP
80
40
40
20
20
20
10
10
10
20
20
20
40
40
80
ENDCHAR

STARTCHAR bar
ENCODING 106
SWIDTH 200 0
DWIDTH 3 0
BBX 1 13 1 -3
BITMAP
80
80
80
80
80
80
80
80
80
80
80
80
80
ENDCHAR

STARTCHAR bardbl-fallback
ENCODING 107
SWIDTH 250 0
DWIDTH 4 0
BBX 0 0 0 0
BITMAP
ENDCHAR

STARTCHAR arrowupdown-fallback
ENCODING 108
SWIDTH 250 0
DWIDTH 4 0
BBX 0 0 0 0
BITMAP
ENDCHAR

STARTCHAR arrowdblupdown-fallback
ENCODING 109
SWIDTH 250 0
DWIDTH 4 0
BBX 0 0 0 0
BITMAP
ENDCHAR

STARTCHAR backslash
ENCODING 110
SWIDTH 606 0
DWIDTH 8 0
BBX 6 11 1 0
BITMAP
80
80
40
40
20
20
10
10
08
08
04
ENDCHAR

STARTCHAR wreath-fallback
ENCODING 111
SWIDTH 250 0
DWIDTH 4 0
BBX 0 0 0 0
BITMAP
ENDCHAR

STARTCHAR radical
ENCODING 112
SWIDTH 549 0
DWIDTH 8 0
BBX 8 14 0 0
BITMAP
01
01
01
02
02
02
02
64
A4
24
14
14
08
08
ENDCHAR

STARTCHAR amalgamation-fallback
ENCODING 113
SWIDTH 250 0
DWIDTH 4 0
BBX 0 0 0 0
BITMAP
ENDCHAR

STARTCHAR gradient
ENCODING 114
SWIDTH 713 0
DWIDTH 10 0
BBX 9 11 0 0
BITMAP
FF80
8080
4100
4100
2200
2200
2200
1400
1400
0800
0800
ENDCHAR

STARTCHAR integral
ENCODING 115
SWIDTH 274 0
DWIDTH 4 0
BBX 5 13 0 -1
BITMAP
18
28
20
20
20
20
20
20
20
20
20
A0
C0
ENDCHAR

STARTCHAR squareunion-fallback
ENCODING 116
SWIDTH 250 0
DWIDTH 4 0
BBX 0 0 0 0
BITMAP
ENDCHAR

STARTCHAR squareintersection-fallback
ENCODING 117
SWIDTH 250 0
DWIDTH 4 0
BBX 0 0 0 0
BITMAP
ENDCHAR

STARTCHAR squaresubset-fallback
ENCODING 118
SWIDTH 250 0
DWIDTH 4 0
BBX 0 0 0 0
BITMAP
ENDCHAR

STARTCHAR squaresuperset-fallback
ENCODING 119
SWIDTH 250 0
DWIDTH 4 0
BBX 0 0 0 0
BITMAP
ENDCHAR

STARTCHAR section
ENCODING 120
SWIDTH 500 0
DWIDTH 7 0
BBX 6 13 0 -2
BITMAP
38
44
4C
20
50
88
84
44
28
10
C8
88
70
ENDCHAR

STARTCHAR dagger
ENCODING 121
SWIDTH 500 0
DWIDTH 7 0
BBX 6 13 0 -2
BITMAP
10
10
10
FC
20
20
20
20
40
40
40
40
40
ENDCHAR

STARTCHAR daggerdbl
ENCODING 122
SWIDTH 500 0
DWIDTH 8 0
BBX 7 13 0 -2
BITMAP
08
08
08
7E
10
10
10
10
10
FC
20
20
20
ENDCHAR

STARTCHAR paragraph
ENCODING 123
SWIDTH 650 0
DWIDTH 9 0
BBX 8 11 0 0
BITMAP
3F
EA
CA
CA
CA
7A
14
14
14
14
3E
ENDCHAR

STARTCHAR club
ENCODING 124
SWIDTH 753 0
DWIDTH 11 0
BBX 9 7 1 0
BITMAP
1C00
1C00
1C00
EB80
FF80
EB80
0800
ENDCHAR

STARTCHAR diamond
ENCODING 125
SWIDTH 753 0
DWIDTH 11 0
BBX 7 7 2 0
BITMAP
10
38
7C
FE
7C
38
10
ENDCHAR

STARTCHAR heart
ENCODING 126
SWIDTH 753 0
DWIDTH 11 0
BBX 7 7 2 0
BITMAP
6C
FE
FE
FE
7C
38
10
ENDCHAR

STARTCHAR spade
ENCODING 127
SWIDTH 753 0
DWIDTH 11 0
BBX 9 7 1 0
BITMAP
0800
1C00
3E00
7F00
FF80
6B00
0800
ENDCHAR

STARTCHAR minus
ENCODING 160
SWIDTH 549 0
DWIDTH 8 0
BBX 7 1 0 3
BITMAP
FE
ENDCHAR

STARTCHAR dotmath
ENCODING 161
SWIDTH 250 0
DWIDTH 4 0
BBX 1 2 1 3
BITMAP
80
80
ENDCHAR

STARTCHAR multiply
ENCODING 162
SWIDTH 549 0
DWIDTH 8 0
BBX 7 7 0 0
BITMAP
82
44
28
10
28
44
82
ENDCHAR

STARTCHAR asteriskmath
ENCODING 163
SWIDTH 500 0
DWIDTH 7 0
BBX 5 6 1 2
BITMAP
20
A8
70
70
A8
20
ENDCHAR

STARTCHAR divide
ENCODING 164
SWIDTH 549 0
DWIDTH 8 0
BBX 7 7 0 0
BITMAP
10
10
00
FE
00
10
10
ENDCHAR

STARTCHAR lozenge
ENCODING 165
SWIDTH 494 0
DWIDTH 7 0
BBX 7 11 0 0
BITMAP
10
28
28
44
44
82
44
44
28
28
10
ENDCHAR

STARTCHAR plusminus
ENCODING 166
SWIDTH 549 0
DWIDTH 8 0
BBX 7 9 0 0
BITMAP
10
10
10
FE
10
10
10
00
FE
ENDCHAR

STARTCHAR minusplus-fallback
ENCODING 167
SWIDTH 250 0
DWIDTH 4 0
BBX 0 0 0 0
BITMAP
ENDCHAR

STARTCHAR circleplus
ENCODING 168
SWIDTH 768 0
DWIDTH 11 0
BBX 9 9 1 0
BITMAP
1C00
6300
4900
8880
BE80
8880
4900
6300
1C00
ENDCHAR

STARTCHAR circleminus-fallback
ENCODING 169
SWIDTH 250 0
DWIDTH 4 0
BBX 0 0 0 0
BITMAP
ENDCHAR

STARTCHAR circlemultiply
ENCODING 170
SWIDTH 768 0
DWIDTH 11 0
BBX 9 9 1 0
BITMAP
1C00
6300
6300
9480
8880
9480
6300
6300
1C00
ENDCHAR

STARTCHAR circledivide-fallback
ENCODING 171
SWIDTH 250 0
DWIDTH 4 0
BBX 0 0 0 0
BITMAP
ENDCHAR

STARTCHAR circledot-fallback
ENCODING 172
SWIDTH 250 0
DWIDTH 4 0
BBX 0 0 0 0
BITMAP
ENDCHAR

STARTCHAR circleconstr-fallback
ENCODING 173
SWIDTH 250 0
DWIDTH 4 0
BBX 0 0 0 0
BITMAP
ENDCHAR

STARTCHAR circle-fallback
ENCODING 174
SWIDTH 250 0
DWIDTH 4 0
BBX 0 0 0 0
BITMAP
ENDCHAR

STARTCHAR bullet
ENCODING 175
SWIDTH 460 0
DWIDTH 7 0
BBX 5 5 1 1
BITMAP
70
F8
F8
F8
70
ENDCHAR

STARTCHAR asymptequiv-fallback
ENCODING 176
SWIDTH 250 0
DWIDTH 4 0
BBX 0 0 0 0
BITMAP
ENDCHAR

STARTCHAR equivalence
ENCODING 177
SWIDTH 549 0
DWIDTH 8 0
BBX 7 5 0 1
BITMAP
FE
00
FE
00
FE
ENDCHAR

STARTCHAR reflexsubset
ENCODING 178
SWIDTH 713 0
DWIDTH 10 0
BBX 9 9 0 -2
BITMAP
3F80
4000
8000
8000
8000
4000
3F80
0000
FF80
ENDCHAR

STARTCHAR reflexsuperset
ENCODING 179
SWIDTH 713 0
DWIDTH 10 0
BBX 9 9 1 -2
BITMAP
FE00
0100
0080
0080
0080
0100
FE00
0000
FF80
ENDCHAR

STARTCHAR lessequal
ENCODING 180
SWIDTH 549 0
DWIDTH 8 0
BBX 7 9 0 0
BITMAP
02
0C
30
C0
30
0C
02
00
FE
ENDCHAR

STARTCHAR greaterequal
ENCODING 181
SWIDTH 549 0
DWIDTH 8 0
BBX 7 9 0 0
BITMAP
80
60
18
06
18
60
80
00
FE
ENDCHAR

STARTCHAR precedesequal-fallback
ENCODING 182
SWIDTH 250 0
DWIDTH 4 0
BBX 0 0 0 0
BITMAP
ENDCHAR

STARTCHAR followsequal-fallback
ENCODING 183
SWIDTH 250 0
DWIDTH 4 0
BBX 0 0 0 0
BITMAP
ENDCHAR

STARTCHAR similar
ENCODING 184
SWIDTH 549 0
DWIDTH 8 0
BBX 6 2 1 3
BITMAP
64
98
ENDCHAR

STARTCHAR approxequal
ENCODING 185
SWIDTH 549 0
DWIDTH 8 0
BBX 7 5 0 2
BITMAP
72
9C
00
72
9C
ENDCHAR

STARTCHAR propersubset
ENCODING 186
SWIDTH 713 0
DWIDTH 10 0
BBX 9 7 1 0
BITMAP
3F80
4000
8000
8000
8000
4000
3F80
ENDCHAR

STARTCHAR propersuperset
ENCODING 187
SWIDTH 713 0
DWIDTH 10 0
BBX 9 7 0 0
BITMAP
FE00
0100
0080
0080
0080
0100
FE00
ENDCHAR

STARTCHAR muchless-fallback
ENCODING 188
SWIDTH 250 0
DWIDTH 4 0
BBX 0 0 0 0
BITMAP
ENDCHAR

STARTCHAR muchgreater-fallback
ENCODING 189
SWIDTH 250 0
DWIDTH 4 0
BBX 0 0 0 0
BITMAP
ENDCHAR

STARTCHAR precedes-fallback
ENCODING 190
SWIDTH 250 0
DWIDTH 4 0
BBX 0 0 0 0
BITMAP
ENDCHAR

STARTCHAR follows-fallback
ENCODING 191
SWIDTH 250 0
DWIDTH 4 0
BBX 0 0 0 0
BITMAP
ENDCHAR
ENDFONT
